<?xml version="1.0" encoding="utf-8"?>
<!-- Generator: Adobe Illustrator 27.5.0, SVG Export Plug-In . SVG Version: 6.00 Build 0)  -->
<svg version="1.1" xmlns="http://www.w3.org/2000/svg" xmlns:xlink="http://www.w3.org/1999/xlink" x="0px" y="0px"
	 viewBox="0 0 800 500" style="enable-background:new 0 0 800 500;" xml:space="preserve">
<g id="_x33_">
	<g>
		<g>
			<path style="fill:#61d4dc;" d="M0,105.5l33.3,7.5c33.399,7.5,100,22.5,166.7,20.8c66.699-1.6,133.3-20,200-25
				c66.699-5,133.3,3.4,200-2.5c66.699-5.8,133.3-25.8,166.699-35.8L800,60.5v-61h-33.301c-33.399,0-100,0-166.699,0
				c-66.7,0-133.301,0-200,0c-66.7,0-133.301,0-200,0c-66.7,0-133.301,0-166.7,0H0V105.5z"/>
			<path style="fill:#AD72F8;" d="M0,160.5l33.3,3.3c33.399,3.4,100,10,166.7,1.7c66.699-8.3,133.3-31.7,200-40.8
				c66.699-9.2,133.3-4.2,200-5.9c66.699-1.6,133.3-10,166.699-14.1L800,100.5v-42l-33.301,10c-33.399,10-100,30-166.699,35.8
				c-66.7,5.9-133.301-2.5-200,2.5c-66.7,5-133.301,23.4-200,25c-66.7,1.7-133.301-13.3-166.7-20.8L0,103.5V160.5z"/>
			<path style="fill:#9B55F7;" d="M0,170.5l33.3,4.2c33.399,4.1,100,12.5,166.7,12.5c66.699,0,133.3-8.4,200-9.2
				c66.699-0.8,133.3,5.8,200,1.7c66.699-4.2,133.3-19.2,166.699-26.7L800,145.5v-47l-33.301,4.2c-33.399,4.1-100,12.5-166.699,14.1
				c-66.7,1.7-133.301-3.3-200,5.9c-66.7,9.1-133.301,32.5-200,40.8c-66.7,8.3-133.301,1.7-166.7-1.7L0,158.5V170.5z"/>
			<path style="fill:#8946E1;" d="M0,190.5l33.3,5c33.399,5,100,15,166.7,18.3c66.699,3.4,133.3,0,200,5
				c66.699,5,133.3,18.4,200,17.5c66.699-0.8,133.3-15.8,166.699-23.3L800,205.5v-62l-33.301,7.5c-33.399,7.5-100,22.5-166.699,26.7
				c-66.7,4.1-133.301-2.5-200-1.7c-66.7,0.8-133.301,9.2-200,9.2c-66.7,0-133.301-8.4-166.7-12.5L0,168.5V190.5z"/>
			<path style="fill:#783BC6;" d="M0,190.5l33.3,9.2c33.399,9.1,100,27.5,166.7,35c66.699,7.5,133.3,4.1,200,10.8
				c66.699,6.7,133.3,23.301,200,21.7c66.699-1.7,133.3-21.7,166.699-31.7l33.301-10v-22l-33.301,7.5
				c-33.399,7.5-100,22.5-166.699,23.3c-66.7,0.9-133.301-12.5-200-17.5c-66.7-5-133.301-1.6-200-5
				c-66.7-3.3-133.301-13.3-166.7-18.3l-33.3-5V190.5z"/>
			<path style="fill:#7137BB;" d="M0,205.5l33.3,10c33.399,10,100,30,166.7,38.301c66.699,8.399,133.3,5,200,12.5
				c66.699,7.5,133.3,25.899,200,25.899c66.699,0,133.3-18.399,166.699-27.5L800,255.5v-32l-33.301,10
				c-33.399,10-100,30-166.699,31.7c-66.7,1.601-133.301-15-200-21.7c-66.7-6.7-133.301-3.3-200-10.8
				c-66.7-7.5-133.301-25.9-166.7-35L0,188.5V205.5z"/>
			<path style="fill:#7137BB;" d="M0,250.5l33.3,5c33.399,5,100,15,166.7,19.2c66.699,4.101,133.3,2.5,200,9.101
				c66.699,6.699,133.3,21.699,200,20c66.699-1.601,133.3-20,166.699-29.101L800,265.5v-12l-33.301,9.2
				c-33.399,9.101-100,27.5-166.699,27.5c-66.7,0-133.301-18.399-200-25.899c-66.7-7.5-133.301-4.101-200-12.5
				C133.3,243.5,66.699,223.5,33.3,213.5L0,203.5V250.5z"/>
			<path style="fill:#783BC6;" d="M0,390.5l33.3-2.5c33.399-2.5,100-7.5,166.7-16.699c66.699-9.101,133.3-22.5,200-16.601
				c66.699,5.8,133.3,30.8,200,37.5c66.699,6.601,133.3-5,166.699-10.899L800,375.5v-112l-33.301,9.2
				c-33.399,9.101-100,27.5-166.699,29.101c-66.7,1.699-133.301-13.301-200-20c-66.7-6.601-133.301-5-200-9.101
				c-66.7-4.2-133.301-14.2-166.7-19.2l-33.3-5V390.5z"/>
			<path style="fill:#8946E1;" d="M0,405.5l33.3,1.7c33.399,1.601,100,5,166.7,9.101c66.699,4.199,133.3,9.199,200,20
				c66.699,10.899,133.3,27.5,200,29.199c66.699,1.7,133.3-11.699,166.699-18.3L800,440.5v-67l-33.301,5.801
				c-33.399,5.899-100,17.5-166.699,10.899c-66.7-6.7-133.301-31.7-200-37.5c-66.7-5.899-133.301,7.5-200,16.601
				C133.3,378.5,66.699,383.5,33.3,386L0,388.5V405.5z"/>
			<path style="fill:#9B55F7;" d="M0,445.5l33.3,2.5c33.399,2.5,100,7.5,166.7,13.301c66.699,5.899,133.3,12.5,200,18.399
				c66.699,5.8,133.3,10.8,200,5.8c66.699-5,133.3-20,166.699-27.5L800,450.5v-12l-33.301,6.7c-33.399,6.601-100,20-166.699,18.3
				c-66.7-1.699-133.301-18.3-200-29.199c-66.7-10.801-133.301-15.801-200-20c-66.7-4.101-133.301-7.5-166.7-9.101L0,403.5V445.5z"
				/>
			<path style="fill:#AD72F8;" d="M0,465.5l33.3,2.5c33.399,2.5,100,7.5,166.7,12.5c66.699,5,133.3,10,200,13.301
				c66.699,3.399,133.3,5,200,2.5c66.699-2.5,133.3-9.101,166.699-12.5L800,480.5v-32l-33.301,7.5
				c-33.399,7.5-100,22.5-166.699,27.5c-66.7,5-133.301,0-200-5.8c-66.7-5.899-133.301-12.5-200-18.399
				C133.3,453.5,66.699,448.5,33.3,446L0,443.5V465.5z"/>
			<path style="fill:#BB8BF9;" d="M0,500.5h33.3c33.399,0,100,0,166.7,0c66.699,0,133.3,0,200,0c66.699,0,133.3,0,200,0
				c66.699,0,133.3,0,166.699,0H800v-22l-33.301,3.301c-33.399,3.399-100,10-166.699,12.5c-66.7,2.5-133.301,0.899-200-2.5
				C333.3,488.5,266.699,483.5,200,478.5c-66.7-5-133.301-10-166.7-12.5L0,463.5V500.5z"/>
		</g>
		<g>
			<rect x="273.548" y="204" style="opacity:0.3;fill:#FFFFFF;" width="252.904" height="92"/>
			<g>
				<polygon style="fill:#D4D4D4;" points="373.053,227.752 374.843,231.707 376.407,231.707 378.196,227.752 378.196,233.377 
					381.13,233.377 381.13,222.697 377.941,222.697 375.625,227.721 373.323,222.697 370.119,222.697 370.119,233.377 
					373.053,233.377 				"/>
				<path style="fill:#D4D4D4;" d="M383.868,231.775c0.471,0.506,1.037,0.914,1.699,1.225c0.662,0.313,1.398,0.467,2.211,0.467
					c0.793,0,1.521-0.15,2.188-0.451c0.667-0.301,1.241-0.699,1.723-1.195c0.481-0.498,0.857-1.068,1.128-1.715
					c0.271-0.646,0.406-1.322,0.406-2.023c0-0.682-0.128-1.348-0.384-2c-0.256-0.652-0.619-1.234-1.09-1.746
					c-0.472-0.512-1.038-0.922-1.7-1.232c-0.662-0.311-1.398-0.467-2.211-0.467c-0.793,0-1.522,0.148-2.189,0.443
					c-0.667,0.297-1.244,0.691-1.729,1.189c-0.487,0.496-0.865,1.07-1.137,1.721c-0.271,0.652-0.405,1.33-0.405,2.031
					c0,0.691,0.13,1.363,0.391,2.016C383.03,230.689,383.396,231.27,383.868,231.775z M385.5,227.021
					c0.095-0.336,0.242-0.637,0.443-0.902c0.201-0.266,0.453-0.479,0.76-0.639c0.306-0.16,0.67-0.242,1.091-0.242
					c0.411,0,0.77,0.078,1.075,0.234c0.306,0.156,0.562,0.361,0.768,0.617c0.205,0.256,0.357,0.551,0.458,0.887
					c0.101,0.336,0.15,0.684,0.15,1.045c0,0.352-0.047,0.697-0.143,1.039c-0.095,0.34-0.241,0.645-0.435,0.91
					c-0.196,0.266-0.449,0.48-0.76,0.646c-0.311,0.164-0.677,0.248-1.099,0.248c-0.421,0-0.785-0.08-1.09-0.24
					c-0.307-0.16-0.56-0.371-0.76-0.633c-0.201-0.26-0.352-0.559-0.452-0.895c-0.1-0.336-0.149-0.686-0.149-1.046
					C385.357,227.701,385.404,227.357,385.5,227.021z"/>
				<path style="fill:#D4D4D4;" d="M400.789,232.992c0.662-0.254,1.229-0.615,1.7-1.082c0.471-0.467,0.835-1.027,1.091-1.686
					c0.256-0.656,0.384-1.391,0.384-2.203c0-0.732-0.116-1.42-0.347-2.068c-0.23-0.646-0.571-1.211-1.022-1.691
					c-0.451-0.48-1.014-0.863-1.685-1.145c-0.672-0.279-1.449-0.42-2.332-0.42h-4.106v10.68h4.106
					C399.391,233.377,400.128,233.248,400.789,232.992z M397.404,225.254h1.174c0.371,0,0.707,0.068,1.008,0.203
					c0.301,0.135,0.554,0.324,0.76,0.564c0.206,0.24,0.363,0.531,0.474,0.873c0.11,0.34,0.166,0.717,0.166,1.127
					c0,0.4-0.053,0.773-0.158,1.113c-0.105,0.342-0.261,0.637-0.466,0.889c-0.206,0.25-0.459,0.445-0.76,0.586
					c-0.302,0.141-0.643,0.211-1.023,0.211h-1.174V225.254z"/>
				<polygon style="fill:#D4D4D4;" points="412.853,230.82 408.175,230.82 408.175,229.134 412.056,229.134 412.056,226.758 
					408.175,226.758 408.175,225.254 412.717,225.254 412.717,222.697 405.241,222.697 405.241,233.377 412.853,233.377 				"/>
				<path style="fill:#D4D4D4;" d="M417.154,230.098h1.099l1.881,3.279h3.309l-2.256-3.926c0.48-0.342,0.857-0.779,1.128-1.317
					c0.27-0.537,0.406-1.115,0.406-1.738c0-0.451-0.091-0.898-0.272-1.346c-0.181-0.445-0.429-0.841-0.744-1.187
					c-0.316-0.348-0.694-0.627-1.136-0.844c-0.441-0.215-0.923-0.322-1.444-0.322h-4.903v10.68h2.933V230.098z M417.154,225.254
					h1.775c0.181,0,0.361,0.098,0.541,0.293c0.181,0.195,0.271,0.48,0.271,0.85c0,0.361-0.078,0.643-0.233,0.844
					c-0.156,0.199-0.323,0.301-0.504,0.301h-1.851V225.254z"/>
				<polygon style="fill:#D4D4D4;" points="427.308,228.127 431.55,233.377 433.881,233.377 433.881,222.697 430.947,222.697 
					430.947,228.127 426.661,222.697 424.374,222.697 424.374,233.377 427.308,233.377 				"/>
				<path style="fill:#D4D4D4;" d="M345.805,274.412c0.439-0.201,0.783-0.506,1.031-0.914c0.247-0.406,0.371-0.859,0.371-1.353
					c0-0.303-0.053-0.602-0.158-0.9c-0.105-0.297-0.254-0.563-0.447-0.797c-0.191-0.234-0.426-0.424-0.7-0.57
					c-0.274-0.147-0.582-0.221-0.921-0.221h-4.701v9.76h4.605c0.376,0,0.728-0.06,1.059-0.185c0.329-0.123,0.618-0.297,0.866-0.521
					c0.247-0.225,0.443-0.49,0.591-0.797c0.146-0.309,0.22-0.645,0.22-1.012c0-0.596-0.162-1.117-0.488-1.566
					C346.806,274.885,346.363,274.578,345.805,274.412z M341.241,270.496h3.436c0.229,0,0.44,0.047,0.633,0.145
					c0.192,0.096,0.359,0.225,0.502,0.383c0.142,0.162,0.252,0.352,0.329,0.572c0.078,0.219,0.117,0.453,0.117,0.701
					c0,0.236-0.042,0.465-0.124,0.68c-0.082,0.215-0.197,0.404-0.344,0.57c-0.147,0.164-0.323,0.299-0.529,0.398
					c-0.205,0.102-0.429,0.15-0.666,0.15h-3.354V270.496z M346.519,277.43c-0.092,0.225-0.217,0.422-0.378,0.592
					c-0.16,0.17-0.349,0.305-0.564,0.406c-0.215,0.1-0.447,0.15-0.694,0.15h-3.643v-3.697h3.739c0.238,0,0.46,0.053,0.666,0.158
					c0.207,0.105,0.385,0.242,0.536,0.412c0.151,0.17,0.269,0.365,0.351,0.59c0.083,0.225,0.124,0.457,0.124,0.695
					S346.611,277.205,346.519,277.43z"/>
				<path style="fill:#D4D4D4;" d="M355.551,269.656l-4.082,9.76h1.03l1.251-3.051h4.385l1.266,3.051h1.018l-4.057-9.76H355.551z
					 M353.957,275.609l1.992-4.826l1.966,4.826H353.957z"/>
				<path style="fill:#D4D4D4;" d="M371.167,277.637c-0.23,0.225-0.48,0.412-0.749,0.563c-0.272,0.152-0.55,0.262-0.839,0.33
					c-0.289,0.07-0.57,0.104-0.845,0.104c-0.523,0-1.007-0.111-1.451-0.336s-0.829-0.527-1.154-0.908
					c-0.326-0.381-0.582-0.818-0.77-1.313c-0.189-0.494-0.283-1.012-0.283-1.553c0-0.496,0.079-0.982,0.234-1.465
					c0.156-0.48,0.388-0.914,0.694-1.299c0.308-0.385,0.685-0.697,1.134-0.936c0.449-0.236,0.967-0.357,1.554-0.357
					c0.266,0,0.536,0.031,0.811,0.09c0.275,0.061,0.541,0.158,0.797,0.297c0.256,0.137,0.497,0.315,0.722,0.535
					c0.225,0.221,0.415,0.49,0.57,0.81l0.757-0.467c-0.294-0.633-0.75-1.145-1.368-1.539c-0.618-0.395-1.364-0.592-2.233-0.592
					c-0.734,0-1.389,0.145-1.967,0.434c-0.577,0.289-1.063,0.662-1.457,1.119c-0.394,0.459-0.693,0.979-0.9,1.561
					c-0.205,0.582-0.309,1.166-0.309,1.754c0,0.623,0.111,1.234,0.337,1.834c0.224,0.602,0.538,1.137,0.94,1.609
					c0.404,0.471,0.885,0.853,1.443,1.146c0.56,0.293,1.174,0.441,1.843,0.441c0.376,0,0.759-0.051,1.147-0.152
					c0.39-0.102,0.759-0.248,1.107-0.439c0.348-0.193,0.664-0.428,0.948-0.709c0.284-0.279,0.503-0.602,0.659-0.969l-0.797-0.412
					C371.588,277.139,371.395,277.412,371.167,277.637z"/>
				<polygon style="fill:#D4D4D4;" points="384.887,269.656 383.828,269.656 378.453,275.334 378.453,269.67 377.49,269.67 
					377.49,279.416 378.453,279.416 378.453,276.42 380.295,274.51 384.034,279.416 385.092,279.416 380.9,273.945 				"/>
				<path style="fill:#D4D4D4;" d="M393.986,275.361h2.172v1.623c-0.468,0.566-0.955,0.982-1.464,1.242
					c-0.509,0.262-1.043,0.393-1.603,0.393c-0.521,0-1.005-0.109-1.449-0.33c-0.445-0.219-0.832-0.516-1.162-0.887
					c-0.33-0.371-0.588-0.803-0.776-1.299c-0.189-0.494-0.282-1.018-0.282-1.566c0-0.523,0.082-1.029,0.248-1.52
					c0.164-0.49,0.4-0.926,0.707-1.307c0.308-0.379,0.679-0.684,1.114-0.914c0.435-0.229,0.923-0.344,1.464-0.344
					c0.65,0,1.232,0.143,1.746,0.428c0.513,0.283,0.93,0.729,1.251,1.332l0.742-0.494c-0.156-0.311-0.347-0.598-0.57-0.859
					c-0.226-0.262-0.491-0.486-0.798-0.674c-0.307-0.188-0.658-0.334-1.051-0.439c-0.394-0.105-0.83-0.158-1.307-0.158
					c-0.65,0-1.251,0.135-1.801,0.406c-0.551,0.27-1.026,0.631-1.43,1.086c-0.403,0.453-0.717,0.978-0.941,1.574
					c-0.225,0.594-0.337,1.217-0.337,1.869c0,0.623,0.114,1.23,0.344,1.82c0.229,0.592,0.548,1.121,0.956,1.588
					c0.407,0.467,0.889,0.844,1.443,1.127c0.554,0.285,1.161,0.426,1.82,0.426c1.182,0,2.227-0.498,3.135-1.498v1.43h0.811v-4.797
					h-2.983V275.361z"/>
				<path style="fill:#D4D4D4;" d="M407.98,275.285c0.266-0.178,0.492-0.398,0.68-0.658c0.188-0.262,0.334-0.555,0.439-0.881
					s0.158-0.666,0.158-1.023c0-0.377-0.07-0.748-0.213-1.113c-0.143-0.367-0.342-0.695-0.598-0.984
					c-0.256-0.289-0.561-0.522-0.914-0.699c-0.354-0.18-0.74-0.27-1.162-0.27h-4.123v9.76h0.961v-3.601h2.889l2.295,3.601h1.086
					l-2.393-3.766C407.416,275.586,407.715,275.465,407.98,275.285z M403.209,274.963v-4.455h3.107c0.266,0,0.521,0.061,0.764,0.18
					c0.242,0.119,0.453,0.279,0.633,0.48c0.178,0.203,0.32,0.438,0.426,0.709c0.105,0.27,0.158,0.553,0.158,0.846
					c0,0.293-0.047,0.572-0.139,0.838c-0.092,0.266-0.219,0.504-0.385,0.715c-0.164,0.211-0.363,0.379-0.598,0.502
					c-0.234,0.123-0.492,0.186-0.777,0.186H403.209z"/>
				<path style="fill:#D4D4D4;" d="M421.773,271.154c-0.398-0.467-0.879-0.844-1.443-1.133c-0.563-0.289-1.184-0.434-1.861-0.434
					c-0.652,0-1.256,0.135-1.815,0.406c-0.559,0.27-1.045,0.635-1.457,1.092c-0.412,0.459-0.736,0.986-0.971,1.58
					c-0.232,0.598-0.35,1.221-0.35,1.871c0,0.623,0.109,1.232,0.33,1.828s0.531,1.125,0.936,1.588
					c0.402,0.463,0.885,0.834,1.449,1.113c0.565,0.279,1.184,0.418,1.863,0.418c0.65,0,1.256-0.135,1.814-0.404
					c0.559-0.272,1.041-0.633,1.449-1.086c0.408-0.455,0.728-0.979,0.963-1.574c0.232-0.596,0.35-1.219,0.35-1.869
					c0-0.615-0.109-1.217-0.33-1.809C422.482,272.152,422.174,271.621,421.773,271.154z M421.816,276.022
					c-0.17,0.486-0.412,0.92-0.723,1.305c-0.313,0.387-0.691,0.697-1.141,0.935c-0.449,0.238-0.949,0.357-1.498,0.357
					c-0.541,0-1.031-0.111-1.471-0.336c-0.441-0.225-0.82-0.527-1.143-0.908c-0.32-0.379-0.568-0.816-0.742-1.307
					c-0.174-0.49-0.26-1-0.26-1.531c0-0.504,0.084-1,0.254-1.484c0.17-0.486,0.41-0.922,0.721-1.307
					c0.313-0.385,0.691-0.695,1.141-0.928c0.449-0.234,0.949-0.352,1.5-0.352c0.531,0,1.016,0.113,1.457,0.338
					c0.439,0.225,0.82,0.523,1.141,0.9c0.32,0.375,0.57,0.809,0.748,1.299c0.18,0.49,0.27,1.002,0.27,1.533
					C422.07,275.041,421.984,275.535,421.816,276.022z"/>
				<path style="fill:#D4D4D4;" d="M435.268,274.578c0,0.494-0.049,0.984-0.145,1.471c-0.098,0.486-0.266,0.918-0.51,1.299
					c-0.242,0.381-0.568,0.688-0.977,0.922c-0.406,0.233-0.918,0.35-1.531,0.35c-0.605,0-1.109-0.115-1.512-0.344
					c-0.404-0.228-0.727-0.531-0.971-0.906c-0.242-0.377-0.414-0.807-0.516-1.293c-0.1-0.486-0.15-0.984-0.15-1.498v-4.922h-0.949
					v4.922c0,0.623,0.07,1.229,0.207,1.815c0.137,0.586,0.367,1.109,0.688,1.566c0.32,0.459,0.744,0.828,1.271,1.107
					c0.527,0.279,1.176,0.418,1.945,0.418c0.75,0,1.389-0.133,1.91-0.398c0.523-0.266,0.945-0.623,1.272-1.072
					c0.326-0.447,0.563-0.969,0.709-1.559c0.147-0.592,0.219-1.217,0.219-1.877v-4.922h-0.961V274.578z"/>
				<polygon style="fill:#D4D4D4;" points="449.027,277.781 442.566,269.656 441.824,269.656 441.824,279.416 442.785,279.416 
					442.785,271.443 449.15,279.416 449.988,279.416 449.988,269.67 449.027,269.67 				"/>
				<path style="fill:#D4D4D4;" d="M462.547,271.086c-0.391-0.439-0.877-0.787-1.459-1.045c-0.582-0.256-1.262-0.385-2.041-0.385
					h-3.313v9.76h3.313c0.715,0,1.359-0.117,1.932-0.35c0.572-0.234,1.063-0.564,1.471-0.99s0.723-0.94,0.941-1.539
					c0.221-0.602,0.33-1.272,0.33-2.014c0-0.67-0.098-1.299-0.295-1.891C463.228,272.041,462.935,271.525,462.547,271.086z
					 M462.518,276.125c-0.16,0.49-0.397,0.916-0.707,1.277c-0.313,0.361-0.699,0.646-1.162,0.854
					c-0.463,0.205-0.996,0.309-1.602,0.309h-2.35v-8.057h2.35c0.596,0,1.123,0.1,1.582,0.297c0.457,0.197,0.846,0.475,1.16,0.832
					c0.316,0.357,0.557,0.781,0.723,1.272c0.164,0.49,0.248,1.027,0.248,1.615C462.76,275.1,462.678,275.635,462.518,276.125z"/>
				<polygon style="fill:#D4D4D4;" points="359.277,264.502 365.575,264.502 376.382,236.902 368.141,236.902 362.193,255.834 
					360.211,250.08 364.758,236.902 357.801,236.902 355.352,245.416 352.941,236.902 345.982,236.902 350.453,250.08 
					348.549,255.834 342.56,236.902 334.359,236.902 345.166,264.502 351.463,264.502 355.352,254.629 				"/>
				<path style="fill:#D4D4D4;" d="M383.146,236.902l-9.602,27.6h7.735l1.633-5.402h7.347l1.672,5.402h7.697l-9.563-27.6H383.146z
					 M384.041,254.045l2.565-8.553l2.448,8.553H384.041z"/>
				<polygon style="fill:#D4D4D4;" points="410.397,254.979 404.994,236.902 396.985,236.902 407.248,264.502 413.545,264.502 
					423.691,236.902 415.723,236.902 				"/>
				<polygon style="fill:#D4D4D4;" points="445.461,257.895 433.371,257.895 433.371,253.541 443.4,253.541 443.4,247.398 
					433.371,247.398 433.371,243.51 445.111,243.51 445.111,236.902 425.791,236.902 425.791,264.502 445.461,264.502 				"/>
				<path style="fill:#D4D4D4;" d="M469.641,256.066c0-1.295-0.195-2.396-0.584-3.303c-0.389-0.908-0.945-1.678-1.672-2.314
					c-0.725-0.635-1.6-1.186-2.623-1.652c-1.025-0.467-2.172-0.895-3.441-1.283c-0.803-0.258-1.522-0.479-2.156-0.66
					c-0.637-0.18-1.174-0.369-1.613-0.564c-0.441-0.193-0.777-0.406-1.012-0.641c-0.232-0.232-0.35-0.531-0.35-0.895
					c0-0.492,0.201-0.842,0.603-1.049c0.4-0.207,0.938-0.311,1.613-0.311c0.828,0,1.678,0.135,2.545,0.408
					c0.869,0.272,1.652,0.563,2.353,0.875c0.828,0.362,1.631,0.778,2.41,1.243l3.264-6.258c-0.621-0.311-1.32-0.643-2.098-0.99
					c-0.777-0.352-1.613-0.676-2.508-0.973c-0.895-0.299-1.822-0.545-2.779-0.738c-0.959-0.195-1.945-0.293-2.955-0.293
					c-1.373,0-2.676,0.201-3.906,0.604c-1.232,0.402-2.326,0.992-3.285,1.768c-0.959,0.777-1.717,1.75-2.275,2.916
					c-0.557,1.166-0.834,2.513-0.834,4.043c0,1.012,0.135,1.904,0.408,2.684c0.272,0.777,0.691,1.471,1.262,2.08
					c0.57,0.607,1.297,1.152,2.178,1.631c0.881,0.48,1.93,0.928,3.149,1.342c0.83,0.285,1.613,0.531,2.351,0.738
					c0.74,0.209,1.393,0.416,1.963,0.623c0.57,0.207,1.018,0.447,1.342,0.719c0.324,0.271,0.486,0.601,0.486,0.99
					c0,0.365-0.162,0.656-0.486,0.875c-0.324,0.221-0.9,0.33-1.73,0.33c-1.088,0-2.156-0.154-3.207-0.465
					c-1.049-0.313-1.988-0.662-2.818-1.051c-0.984-0.439-1.93-0.945-2.838-1.516l-3.264,6.649c0.828,0.492,1.728,0.932,2.701,1.32
					c0.971,0.389,1.982,0.727,3.031,1.012c1.051,0.285,2.105,0.504,3.17,0.66c1.061,0.156,2.098,0.234,3.109,0.234
					c1.27,0,2.533-0.15,3.789-0.447c1.258-0.299,2.385-0.785,3.383-1.459c0.998-0.674,1.801-1.574,2.41-2.701
					C469.336,259.119,469.641,257.727,469.641,256.066z"/>
				<polygon style="fill:#D4D4D4;" points="438.75,227.359 438.75,228.359 482.84,228.359 482.84,273.43 467.75,273.43 
					467.75,274.43 483.84,274.43 483.84,227.359 				"/>
				<polygon style="fill:#D4D4D4;" points="317.16,228.359 364.109,228.359 364.109,227.359 316.16,227.359 316.16,274.43 
					335.109,274.43 335.109,273.43 317.16,273.43 				"/>
			</g>
			<g>
				<polygon style="fill:#FFFFFF;" points="373.053,226.684 374.843,230.639 376.407,230.639 378.196,226.684 378.196,232.309 
					381.13,232.309 381.13,221.629 377.941,221.629 375.625,226.652 373.323,221.629 370.119,221.629 370.119,232.309 
					373.053,232.309 				"/>
				<path style="fill:#FFFFFF;" d="M383.868,230.707c0.471,0.506,1.037,0.914,1.699,1.225c0.662,0.313,1.398,0.467,2.211,0.467
					c0.793,0,1.521-0.15,2.188-0.451c0.667-0.301,1.241-0.699,1.723-1.195c0.481-0.498,0.857-1.068,1.128-1.715
					c0.271-0.646,0.406-1.322,0.406-2.023c0-0.682-0.128-1.348-0.384-2c-0.256-0.652-0.619-1.234-1.09-1.746
					c-0.472-0.512-1.038-0.922-1.7-1.232c-0.662-0.311-1.398-0.467-2.211-0.467c-0.793,0-1.522,0.148-2.189,0.443
					c-0.667,0.297-1.244,0.691-1.729,1.189c-0.487,0.496-0.865,1.07-1.137,1.721c-0.271,0.652-0.405,1.33-0.405,2.031
					c0,0.691,0.13,1.363,0.391,2.015C383.03,229.621,383.396,230.201,383.868,230.707z M385.5,225.953
					c0.095-0.336,0.242-0.637,0.443-0.903c0.201-0.265,0.453-0.478,0.76-0.638c0.306-0.16,0.67-0.242,1.091-0.242
					c0.411,0,0.77,0.078,1.075,0.234c0.306,0.156,0.562,0.361,0.768,0.617c0.205,0.256,0.357,0.551,0.458,0.887
					c0.101,0.336,0.15,0.684,0.15,1.045c0,0.352-0.047,0.697-0.143,1.039c-0.095,0.34-0.241,0.645-0.435,0.91
					c-0.196,0.266-0.449,0.48-0.76,0.646c-0.311,0.164-0.677,0.248-1.099,0.248c-0.421,0-0.785-0.08-1.09-0.24
					c-0.307-0.16-0.56-0.371-0.76-0.633c-0.201-0.26-0.352-0.559-0.452-0.895c-0.1-0.336-0.149-0.686-0.149-1.045
					C385.357,226.633,385.404,226.289,385.5,225.953z"/>
				<path style="fill:#FFFFFF;" d="M400.789,231.924c0.662-0.254,1.229-0.615,1.7-1.082c0.471-0.467,0.835-1.027,1.091-1.686
					c0.256-0.656,0.384-1.391,0.384-2.203c0-0.732-0.116-1.42-0.347-2.069c-0.23-0.646-0.571-1.21-1.022-1.691
					c-0.451-0.48-1.014-0.863-1.685-1.145c-0.672-0.279-1.449-0.42-2.332-0.42h-4.106v10.68h4.106
					C399.391,232.309,400.128,232.18,400.789,231.924z M397.404,224.186h1.174c0.371,0,0.707,0.068,1.008,0.203
					c0.301,0.135,0.554,0.324,0.76,0.564c0.206,0.24,0.363,0.531,0.474,0.873c0.11,0.34,0.166,0.717,0.166,1.127
					c0,0.4-0.053,0.773-0.158,1.113c-0.105,0.342-0.261,0.637-0.466,0.889c-0.206,0.25-0.459,0.445-0.76,0.586
					c-0.302,0.141-0.643,0.211-1.023,0.211h-1.174V224.186z"/>
				<polygon style="fill:#FFFFFF;" points="412.853,229.752 408.175,229.752 408.175,228.066 412.056,228.066 412.056,225.689 
					408.175,225.689 408.175,224.186 412.717,224.186 412.717,221.629 405.241,221.629 405.241,232.309 412.853,232.309 				"/>
				<path style="fill:#FFFFFF;" d="M417.154,229.029h1.099l1.881,3.279h3.309l-2.256-3.926c0.48-0.342,0.857-0.779,1.128-1.316
					c0.27-0.537,0.406-1.115,0.406-1.738c0-0.451-0.091-0.898-0.272-1.346c-0.181-0.445-0.429-0.842-0.744-1.188
					c-0.316-0.348-0.694-0.627-1.136-0.844c-0.441-0.215-0.923-0.322-1.444-0.322h-4.903v10.68h2.933V229.029z M417.154,224.186
					h1.775c0.181,0,0.361,0.098,0.541,0.293c0.181,0.195,0.271,0.48,0.271,0.85c0,0.361-0.078,0.643-0.233,0.844
					c-0.156,0.199-0.323,0.301-0.504,0.301h-1.851V224.186z"/>
				<polygon style="fill:#FFFFFF;" points="427.308,227.059 431.55,232.309 433.881,232.309 433.881,221.629 430.947,221.629 
					430.947,227.059 426.661,221.629 424.374,221.629 424.374,232.309 427.308,232.309 				"/>
				<path style="fill:#FFFFFF;" d="M345.805,273.344c0.439-0.201,0.783-0.506,1.031-0.914c0.247-0.406,0.371-0.859,0.371-1.353
					c0-0.303-0.053-0.602-0.158-0.9c-0.105-0.297-0.254-0.563-0.447-0.797c-0.191-0.234-0.426-0.424-0.7-0.57
					c-0.274-0.146-0.582-0.221-0.921-0.221h-4.701v9.76h4.605c0.376,0,0.728-0.061,1.059-0.186c0.329-0.123,0.618-0.297,0.866-0.522
					c0.247-0.225,0.443-0.49,0.591-0.797c0.146-0.309,0.22-0.645,0.22-1.012c0-0.596-0.162-1.117-0.488-1.566
					C346.806,273.816,346.363,273.51,345.805,273.344z M341.241,269.428h3.436c0.229,0,0.44,0.047,0.633,0.145
					c0.192,0.096,0.359,0.225,0.502,0.383c0.142,0.162,0.252,0.352,0.329,0.572c0.078,0.219,0.117,0.453,0.117,0.701
					c0,0.236-0.042,0.465-0.124,0.68c-0.082,0.215-0.197,0.404-0.344,0.57c-0.147,0.164-0.323,0.299-0.529,0.399
					c-0.205,0.101-0.429,0.15-0.666,0.15h-3.354V269.428z M346.519,276.361c-0.092,0.225-0.217,0.422-0.378,0.592
					c-0.16,0.17-0.349,0.305-0.564,0.406c-0.215,0.1-0.447,0.15-0.694,0.15h-3.643v-3.697h3.739c0.238,0,0.46,0.053,0.666,0.158
					c0.207,0.105,0.385,0.242,0.536,0.412c0.151,0.17,0.269,0.365,0.351,0.59c0.083,0.225,0.124,0.457,0.124,0.695
					S346.611,276.137,346.519,276.361z"/>
				<path style="fill:#FFFFFF;" d="M355.551,268.588l-4.082,9.76h1.03l1.251-3.051h4.385l1.266,3.051h1.018l-4.057-9.76H355.551z
					 M353.957,274.541l1.992-4.826l1.966,4.826H353.957z"/>
				<path style="fill:#FFFFFF;" d="M371.167,276.568c-0.23,0.225-0.48,0.412-0.749,0.563c-0.272,0.152-0.55,0.262-0.839,0.33
					c-0.289,0.07-0.57,0.104-0.845,0.104c-0.523,0-1.007-0.111-1.451-0.336c-0.444-0.225-0.829-0.527-1.154-0.908
					c-0.326-0.381-0.582-0.818-0.77-1.313c-0.189-0.494-0.283-1.012-0.283-1.553c0-0.496,0.079-0.982,0.234-1.465
					c0.156-0.48,0.388-0.914,0.694-1.299c0.308-0.385,0.685-0.697,1.134-0.936c0.449-0.236,0.967-0.357,1.554-0.357
					c0.266,0,0.536,0.031,0.811,0.09c0.275,0.06,0.541,0.158,0.797,0.297c0.256,0.137,0.497,0.314,0.722,0.535
					c0.225,0.221,0.415,0.49,0.57,0.811l0.757-0.467c-0.294-0.633-0.75-1.145-1.368-1.539c-0.618-0.395-1.364-0.592-2.233-0.592
					c-0.734,0-1.389,0.145-1.967,0.434c-0.577,0.289-1.063,0.662-1.457,1.119c-0.394,0.459-0.693,0.979-0.9,1.561
					c-0.205,0.582-0.309,1.166-0.309,1.754c0,0.623,0.111,1.234,0.337,1.834c0.224,0.602,0.538,1.137,0.94,1.609
					c0.404,0.471,0.885,0.853,1.443,1.146c0.56,0.293,1.174,0.441,1.843,0.441c0.376,0,0.759-0.051,1.147-0.152
					c0.39-0.102,0.759-0.248,1.107-0.439c0.348-0.193,0.664-0.428,0.948-0.709c0.284-0.279,0.503-0.602,0.659-0.969l-0.797-0.412
					C371.588,276.07,371.395,276.344,371.167,276.568z"/>
				<polygon style="fill:#FFFFFF;" points="384.887,268.588 383.828,268.588 378.453,274.266 378.453,268.602 377.49,268.602 
					377.49,278.348 378.453,278.348 378.453,275.352 380.295,273.441 384.034,278.348 385.092,278.348 380.9,272.877 				"/>
				<path style="fill:#FFFFFF;" d="M393.986,274.293h2.172v1.623c-0.468,0.566-0.955,0.982-1.464,1.242
					c-0.509,0.262-1.043,0.393-1.603,0.393c-0.521,0-1.005-0.109-1.449-0.33c-0.445-0.219-0.832-0.516-1.162-0.887
					c-0.33-0.371-0.588-0.803-0.776-1.299c-0.189-0.494-0.282-1.018-0.282-1.566c0-0.523,0.082-1.029,0.248-1.52
					c0.164-0.49,0.4-0.926,0.707-1.307c0.308-0.379,0.679-0.684,1.114-0.914c0.435-0.228,0.923-0.344,1.464-0.344
					c0.65,0,1.232,0.143,1.746,0.428c0.513,0.283,0.93,0.728,1.251,1.332l0.742-0.494c-0.156-0.311-0.347-0.598-0.57-0.859
					c-0.226-0.262-0.491-0.486-0.798-0.674c-0.307-0.188-0.658-0.334-1.051-0.439c-0.394-0.105-0.83-0.158-1.307-0.158
					c-0.65,0-1.251,0.135-1.801,0.406c-0.551,0.27-1.026,0.631-1.43,1.086c-0.403,0.453-0.717,0.979-0.941,1.574
					c-0.225,0.594-0.337,1.217-0.337,1.869c0,0.623,0.114,1.23,0.344,1.82c0.229,0.592,0.548,1.121,0.956,1.588
					c0.407,0.467,0.889,0.844,1.443,1.127c0.554,0.285,1.161,0.426,1.82,0.426c1.182,0,2.227-0.498,3.135-1.498v1.43h0.811v-4.797
					h-2.983V274.293z"/>
				<path style="fill:#FFFFFF;" d="M407.98,274.217c0.266-0.178,0.492-0.398,0.68-0.658c0.188-0.262,0.334-0.555,0.439-0.881
					c0.105-0.326,0.158-0.666,0.158-1.023c0-0.377-0.07-0.748-0.213-1.113c-0.143-0.367-0.342-0.695-0.598-0.984
					c-0.256-0.289-0.561-0.521-0.914-0.699c-0.354-0.18-0.74-0.27-1.162-0.27h-4.123v9.76h0.961v-3.602h2.889l2.295,3.602h1.086
					l-2.393-3.766C407.416,274.518,407.715,274.397,407.98,274.217z M403.209,273.895v-4.455h3.107c0.266,0,0.521,0.06,0.764,0.18
					c0.242,0.119,0.453,0.279,0.633,0.48c0.178,0.203,0.32,0.438,0.426,0.709c0.105,0.27,0.158,0.553,0.158,0.846
					s-0.047,0.572-0.139,0.838c-0.092,0.266-0.219,0.504-0.385,0.715c-0.164,0.211-0.363,0.379-0.598,0.502
					c-0.234,0.123-0.492,0.185-0.777,0.185H403.209z"/>
				<path style="fill:#FFFFFF;" d="M421.773,270.086c-0.398-0.467-0.879-0.844-1.443-1.133c-0.563-0.289-1.184-0.434-1.861-0.434
					c-0.652,0-1.256,0.135-1.815,0.406c-0.559,0.27-1.045,0.635-1.457,1.092c-0.412,0.459-0.736,0.986-0.971,1.58
					c-0.232,0.598-0.35,1.221-0.35,1.871c0,0.623,0.109,1.232,0.33,1.828s0.531,1.125,0.936,1.588
					c0.402,0.463,0.885,0.834,1.449,1.113c0.565,0.279,1.184,0.418,1.863,0.418c0.65,0,1.256-0.135,1.814-0.404
					c0.559-0.271,1.041-0.633,1.449-1.086c0.408-0.455,0.728-0.979,0.963-1.574c0.232-0.596,0.35-1.219,0.35-1.869
					c0-0.615-0.109-1.217-0.33-1.809C422.482,271.084,422.174,270.553,421.773,270.086z M421.816,274.953
					c-0.17,0.486-0.412,0.92-0.723,1.305c-0.313,0.387-0.691,0.697-1.141,0.936c-0.449,0.238-0.949,0.357-1.498,0.357
					c-0.541,0-1.031-0.111-1.471-0.336c-0.441-0.225-0.82-0.527-1.143-0.908c-0.32-0.379-0.568-0.816-0.742-1.307
					s-0.26-1-0.26-1.531c0-0.504,0.084-1,0.254-1.484c0.17-0.486,0.41-0.922,0.721-1.307c0.313-0.385,0.691-0.695,1.141-0.928
					c0.449-0.234,0.949-0.352,1.5-0.352c0.531,0,1.016,0.113,1.457,0.338c0.439,0.225,0.82,0.523,1.141,0.9
					c0.32,0.375,0.57,0.809,0.748,1.299c0.18,0.49,0.27,1.002,0.27,1.533C422.07,273.973,421.984,274.467,421.816,274.953z"/>
				<path style="fill:#FFFFFF;" d="M435.268,273.51c0,0.494-0.049,0.984-0.145,1.471c-0.098,0.486-0.266,0.918-0.51,1.299
					c-0.242,0.381-0.568,0.688-0.977,0.922c-0.406,0.232-0.918,0.35-1.531,0.35c-0.605,0-1.109-0.115-1.512-0.344
					c-0.404-0.229-0.727-0.531-0.971-0.906c-0.242-0.377-0.414-0.807-0.516-1.293c-0.1-0.486-0.15-0.984-0.15-1.498v-4.922h-0.949
					v4.922c0,0.623,0.07,1.229,0.207,1.814c0.137,0.586,0.367,1.109,0.688,1.566c0.32,0.459,0.744,0.828,1.271,1.107
					c0.527,0.279,1.176,0.418,1.945,0.418c0.75,0,1.389-0.133,1.91-0.398c0.523-0.266,0.945-0.623,1.272-1.072
					c0.326-0.447,0.563-0.969,0.709-1.559c0.147-0.592,0.219-1.217,0.219-1.877v-4.922h-0.961V273.51z"/>
				<polygon style="fill:#FFFFFF;" points="449.027,276.713 442.566,268.588 441.824,268.588 441.824,278.348 442.785,278.348 
					442.785,270.375 449.15,278.348 449.988,278.348 449.988,268.602 449.027,268.602 				"/>
				<path style="fill:#FFFFFF;" d="M462.547,270.018c-0.391-0.44-0.877-0.787-1.459-1.045c-0.582-0.256-1.262-0.385-2.041-0.385
					h-3.313v9.76h3.313c0.715,0,1.359-0.117,1.932-0.35c0.572-0.234,1.063-0.564,1.471-0.99c0.408-0.426,0.723-0.939,0.941-1.539
					c0.221-0.602,0.33-1.272,0.33-2.014c0-0.67-0.098-1.299-0.295-1.891C463.228,270.973,462.935,270.457,462.547,270.018z
					 M462.518,275.057c-0.16,0.49-0.397,0.916-0.707,1.277c-0.313,0.361-0.699,0.646-1.162,0.853
					c-0.463,0.205-0.996,0.309-1.602,0.309h-2.35v-8.057h2.35c0.596,0,1.123,0.1,1.582,0.297c0.457,0.197,0.846,0.475,1.16,0.832
					c0.316,0.357,0.557,0.781,0.723,1.271c0.164,0.49,0.248,1.027,0.248,1.615C462.76,274.031,462.678,274.566,462.518,275.057z"/>
				<polygon style="fill:#FFFFFF;" points="359.277,263.434 365.575,263.434 376.382,235.834 368.141,235.834 362.193,254.766 
					360.211,249.012 364.758,235.834 357.801,235.834 355.352,244.348 352.941,235.834 345.982,235.834 350.453,249.012 
					348.549,254.766 342.56,235.834 334.359,235.834 345.166,263.434 351.463,263.434 355.352,253.561 				"/>
				<path style="fill:#FFFFFF;" d="M383.146,235.834l-9.602,27.6h7.735l1.633-5.402h7.347l1.672,5.402h7.697l-9.563-27.6H383.146z
					 M384.041,252.977l2.565-8.553l2.448,8.553H384.041z"/>
				<polygon style="fill:#FFFFFF;" points="410.397,253.91 404.994,235.834 396.985,235.834 407.248,263.434 413.545,263.434 
					423.691,235.834 415.723,235.834 				"/>
				<polygon style="fill:#FFFFFF;" points="445.461,256.826 433.371,256.826 433.371,252.473 443.4,252.473 443.4,246.33 
					433.371,246.33 433.371,242.441 445.111,242.441 445.111,235.834 425.791,235.834 425.791,263.434 445.461,263.434 				"/>
				<path style="fill:#FFFFFF;" d="M469.641,254.998c0-1.295-0.195-2.396-0.584-3.303c-0.389-0.908-0.945-1.678-1.672-2.314
					c-0.725-0.635-1.6-1.186-2.623-1.652c-1.025-0.467-2.172-0.895-3.441-1.283c-0.803-0.258-1.522-0.479-2.156-0.66
					c-0.637-0.18-1.174-0.369-1.613-0.564c-0.441-0.193-0.777-0.406-1.012-0.641c-0.232-0.232-0.35-0.531-0.35-0.895
					c0-0.492,0.201-0.842,0.603-1.049c0.4-0.207,0.938-0.311,1.613-0.311c0.828,0,1.678,0.135,2.545,0.408
					c0.869,0.271,1.652,0.563,2.353,0.875c0.828,0.361,1.631,0.777,2.41,1.242l3.264-6.258c-0.621-0.31-1.32-0.642-2.098-0.99
					c-0.777-0.352-1.613-0.676-2.508-0.973c-0.895-0.299-1.822-0.545-2.779-0.738c-0.959-0.195-1.945-0.293-2.955-0.293
					c-1.373,0-2.676,0.201-3.906,0.604c-1.232,0.402-2.326,0.992-3.285,1.768c-0.959,0.777-1.717,1.75-2.275,2.916
					c-0.557,1.165-0.834,2.514-0.834,4.043c0,1.012,0.135,1.904,0.408,2.684c0.272,0.777,0.691,1.471,1.262,2.08
					c0.57,0.607,1.297,1.152,2.178,1.631c0.881,0.48,1.93,0.928,3.149,1.342c0.83,0.285,1.613,0.531,2.351,0.738
					c0.74,0.209,1.393,0.416,1.963,0.623c0.57,0.207,1.018,0.447,1.342,0.719c0.324,0.271,0.486,0.602,0.486,0.99
					c0,0.365-0.162,0.656-0.486,0.875c-0.324,0.221-0.9,0.33-1.73,0.33c-1.088,0-2.156-0.154-3.207-0.465
					c-1.049-0.313-1.988-0.662-2.818-1.051c-0.984-0.439-1.93-0.945-2.838-1.516l-3.264,6.648c0.828,0.492,1.728,0.932,2.701,1.32
					c0.971,0.389,1.982,0.727,3.031,1.012c1.051,0.285,2.105,0.504,3.17,0.66c1.061,0.156,2.098,0.234,3.109,0.234
					c1.27,0,2.533-0.15,3.789-0.447c1.258-0.299,2.385-0.785,3.383-1.459c0.998-0.674,1.801-1.574,2.41-2.701
					C469.336,258.051,469.641,256.658,469.641,254.998z"/>
				<polygon style="fill:#FFFFFF;" points="438.75,226.291 438.75,227.291 482.84,227.291 482.84,272.361 467.75,272.361 
					467.75,273.361 483.84,273.361 483.84,226.291 				"/>
				<polygon style="fill:#FFFFFF;" points="317.16,227.291 364.109,227.291 364.109,226.291 316.16,226.291 316.16,273.361 
					335.109,273.361 335.109,272.361 317.16,272.361 				"/>
			</g>
		</g>
	</g>
</g>
<g id="Layer_1">
</g>
</svg>
