<?xml version="1.0" standalone="no"?>
<svg xmlns:xlink="http://www.w3.org/1999/xlink" id="wave" style="transform:rotate(0deg); transition: 0.3s" viewBox="0 0 1440 420" version="1.1" xmlns="http://www.w3.org/2000/svg"><defs><linearGradient id="sw-gradient-0" x1="0" x2="0" y1="1" y2="0"><stop stop-color="rgba(138, 43, 226, 1)" offset="0%"/><stop stop-color="rgba(138, 43, 226, 1)" offset="100%"/></linearGradient></defs><path style="transform:translate(0, 0px); opacity:1" fill="url(#sw-gradient-0)" d="M0,210L120,189C240,168,480,126,720,98C960,70,1200,56,1440,91C1680,126,1920,210,2160,217C2400,224,2640,154,2880,147C3120,140,3360,196,3600,231C3840,266,4080,280,4320,294C4560,308,4800,322,5040,301C5280,280,5520,224,5760,203C6000,182,6240,196,6480,231C6720,266,6960,322,7200,308C7440,294,7680,210,7920,182C8160,154,8400,182,8640,224C8880,266,9120,322,9360,343C9600,364,9840,350,10080,336C10320,322,10560,308,10800,280C11040,252,11280,210,11520,203C11760,196,12000,224,12240,252C12480,280,12720,308,12960,315C13200,322,13440,308,13680,315C13920,322,14160,350,14400,364C14640,378,14880,378,15120,350C15360,322,15600,266,15840,203C16080,140,16320,70,16560,98C16800,126,17040,252,17160,315L17280,378L17280,420L17160,420C17040,420,16800,420,16560,420C16320,420,16080,420,15840,420C15600,420,15360,420,15120,420C14880,420,14640,420,14400,420C14160,420,13920,420,13680,420C13440,420,13200,420,12960,420C12720,420,12480,420,12240,420C12000,420,11760,420,11520,420C11280,420,11040,420,10800,420C10560,420,10320,420,10080,420C9840,420,9600,420,9360,420C9120,420,8880,420,8640,420C8400,420,8160,420,7920,420C7680,420,7440,420,7200,420C6960,420,6720,420,6480,420C6240,420,6000,420,5760,420C5520,420,5280,420,5040,420C4800,420,4560,420,4320,420C4080,420,3840,420,3600,420C3360,420,3120,420,2880,420C2640,420,2400,420,2160,420C1920,420,1680,420,1440,420C1200,420,960,420,720,420C480,420,240,420,120,420L0,420Z"/></svg>